# xmcd
#
# Track frame offsets: 
#        150
#        11950
#        24817
#        32503
#        37641
#        43326
#        51934
#        61165
#        70156
#        78864
#        87610
#        101947
#        107722
#        116203
#        127168
#        134706
#        146145
#        156768
#        165791
#        175839
#        183751
#        192068
#        199687
#        211472
#        222375
#        230911
#        237678
#        248407
#        259173
#        272264
#        281868
#        292018
#        300196
#
# Disc length: 4104 seconds
#
# Revision: 0
# Processed by: cddbd v1.5.2PL0 Copyright (c) Steve Scherf et al.
# Submitted via: ExactAudioCopy v0.95b3
#
DISCID=e5100621
DTITLE=Александр Городницкий - Российские барды - Том 4
DYEAR=2010
DGENRE=Ballad
TTITLE0=Почему расстались
TTITLE1=Снег
TTITLE2=Болот огонь зеленый
TTITLE3=Береника
TTITLE4=Брусника
TTITLE5=Перекаты
TTITLE6=Деревянные города
TTITLE7=Песня полярных летчиков
TTITLE8=За белы металлом
TTITLE9=На материк
TTITLE10=У Геркулесовых столбов
TTITLE11=За тех, кто на земле
TTITLE12=Ах, не ревнуй
TTITLE13=Канада
TTITLE14=Английский канал
TTITLE15=Индийский океан
TTITLE16=Я иду по Уругваю
TTITLE17=Моряк, покрепче вяжи узлы
TTITLE18=Песня американких подводников
TTITLE19=Бухта Наталья
TTITLE20=Не женитесь, поэты
TTITLE21=Дуэль
TTITLE22=На Маяковкой площади
TTITLE23=В Донсом монастыре
TTITLE24=Дворец Трезини
TTITLE25=Чистые пруды
TTITLE26=Предательство
TTITLE27=Для чего тебе нужно
TTITLE28=Шотландская песня
TTITLE29=Волчья песня
TTITLE30=Система Декарта
TTITLE31=Жена французского посла
TTITLE32=Атланты
EXTD=
EXTT0=
EXTT1=
EXTT2=
EXTT3=
EXTT4=
EXTT5=
EXTT6=
EXTT7=
EXTT8=
EXTT9=
EXTT10=
EXTT11=
EXTT12=
EXTT13=
EXTT14=
EXTT15=
EXTT16=
EXTT17=
EXTT18=
EXTT19=
EXTT20=
EXTT21=
EXTT22=
EXTT23=
EXTT24=
EXTT25=
EXTT26=
EXTT27=
EXTT28=
EXTT29=
EXTT30=
EXTT31=
EXTT32=
PLAYORDER=
